# xmcd
#
# Track frame offsets: 
#        150
#        9690
#        24917
#        36427
#        49327
#        68217
#        84362
#        98537
#        111002
#        125800
#        137890
#        151747
#        167512
#        179780
#
# Disc length: 2573 seconds
#
# Revision: 1
# Processed by: cddbd v1.5.2PL0 Copyright (c) Steve Scherf et al.
# Submitted via: ExactAudioCopy v1.3
#
DISCID=b70a0b0e
DTITLE=Working Man's Blues - Working Man's Blues
DYEAR=1997
DGENRE=Country
TTITLE0=Vince Gill - A Little Left Over
TTITLE1=Alabama - 40 Work Week (For A Livin')
TTITLE2=Merle Haggard - Workin' Man's Blues
TTITLE3=Tracy Byrd - Lifestyles of the Not So Rich and Famous
TTITLE4=Jerry Jeff Walker - Gettin' By
TTITLE5=BB Watson - Light At the End of the Tunnel
TTITLE6=Sammy Kershaw - National Working Woman's Holiday
TTITLE7=Sawyer Brown - 48 Hours Till Monday
TTITLE8=Steve Earle and The Dukes - Regular Guy
TTITLE9=John Anderson - Lower on the Hog
TTITLE10=Marty Stewart - The Coal Mine Blues
TTITLE11=Aaron Tippen - Working Man's PHD
TTITLE12=George Jones - Finally Friday
TTITLE13=Mark Chesnutt - It Sure is Monday
EXTD=
EXTT0=
EXTT1=
EXTT2=
EXTT3=
EXTT4=
EXTT5=
EXTT6=
EXTT7=
EXTT8=
EXTT9=
EXTT10=
EXTT11=
EXTT12=
EXTT13=
PLAYORDER=
